<?xml version="1.0" standalone="no"?>
<!DOCTYPE svg PUBLIC "-//W3C//DTD SVG 20010904//EN"
 "http://www.w3.org/TR/2001/REC-SVG-20010904/DTD/svg10.dtd">
<svg version="1.0" xmlns="http://www.w3.org/2000/svg"
 width="48.000000pt" height="48.000000pt" viewBox="0 0 48.000000 48.000000"
 preserveAspectRatio="xMidYMid meet">

<g transform="translate(0.000000,48.000000) scale(0.100000,-0.100000)"
fill="#000000" stroke="none">
<path d="M139 432 c-39 -20 -62 -41 -83 -75 -16 -26 -25 -51 -21 -55 4 -4 10
-1 12 5 3 7 12 22 22 34 14 18 20 19 43 9 18 -9 24 -18 21 -31 -3 -10 0 -19 6
-19 6 0 11 7 11 15 0 11 11 15 40 15 29 0 40 -4 40 -15 0 -8 5 -15 10 -15 6 0
10 7 10 15 0 11 11 15 40 15 29 0 40 -4 40 -15 0 -8 5 -15 11 -15 6 0 9 9 6
19 -3 13 3 22 21 31 23 10 29 9 43 -9 10 -12 19 -27 22 -34 2 -6 8 -9 12 -5 4
4 -5 29 -21 55 -21 34 -44 55 -83 75 -71 37 -131 37 -202 0z m91 -37 c0 -45 0
-45 -34 -45 -29 0 -33 3 -29 20 5 19 47 70 58 70 3 0 5 -20 5 -45z m63 12 c30
-48 29 -57 -8 -57 -35 0 -35 0 -35 45 0 49 16 53 43 12z m-134 -12 c-23 -39
-21 -37 -43 -29 -24 9 -20 20 17 43 45 29 49 26 26 -14z m187 14 c37 -23 42
-34 18 -43 -22 -8 -20 -10 -43 29 -24 41 -20 42 25 14z"/>
<path d="M34 264 c3 -9 9 -27 12 -40 8 -32 30 -30 39 4 l7 27 14 -27 c8 -16
19 -28 23 -28 8 0 31 53 31 71 0 21 -18 7 -25 -18 l-7 -28 -10 28 c-5 15 -16
27 -23 27 -7 0 -16 -12 -20 -27 l-7 -28 -10 28 c-5 15 -14 27 -20 27 -6 0 -7
-7 -4 -16z"/>
<path d="M180 266 c0 -24 19 -66 29 -66 5 0 13 9 16 20 3 11 10 20 15 20 5 0
12 -9 15 -20 3 -11 11 -20 16 -20 13 0 31 49 25 69 -3 12 -6 11 -11 -6 -9 -28
-21 -29 -28 -3 -3 11 -10 20 -17 20 -7 0 -14 -9 -17 -20 -6 -23 -23 -27 -23
-6 0 8 -4 18 -10 21 -5 3 -10 -1 -10 -9z"/>
<path d="M320 271 c0 -18 23 -71 31 -71 4 0 15 12 23 28 l14 27 7 -27 c9 -34
31 -36 39 -4 3 13 9 31 12 40 3 9 2 16 -4 16 -6 0 -15 -12 -20 -27 l-10 -28
-7 28 c-4 15 -13 27 -20 27 -7 0 -18 -12 -23 -27 l-10 -28 -7 28 c-7 25 -25
39 -25 18z"/>
<path d="M30 172 c0 -4 13 -29 29 -54 61 -96 192 -125 294 -65 47 28 107 110
92 125 -4 4 -10 1 -12 -5 -3 -7 -12 -22 -22 -34 -14 -18 -20 -19 -43 -9 -18 9
-24 18 -21 31 3 10 0 19 -6 19 -6 0 -11 -7 -11 -15 0 -11 -11 -15 -40 -15 -29
0 -40 4 -40 15 0 8 -4 15 -10 15 -5 0 -10 -7 -10 -15 0 -11 -11 -15 -40 -15
-29 0 -40 4 -40 15 0 8 -5 15 -11 15 -6 0 -9 -9 -6 -19 3 -13 -3 -22 -20 -30
-28 -13 -48 -3 -58 30 -6 19 -25 27 -25 11z m200 -87 c0 -49 -16 -53 -43 -12
-30 48 -29 57 8 57 35 0 35 0 35 -45z m83 28 c-11 -30 -34 -61 -49 -67 -11 -4
-14 5 -14 39 0 45 0 45 35 45 29 0 33 -3 28 -17z m-154 -28 c24 -41 20 -42
-25 -14 -36 22 -42 34 -21 42 22 9 25 8 46 -28z m205 29 c24 -9 19 -20 -18
-43 -45 -28 -49 -27 -25 14 23 39 21 37 43 29z"/>
</g>
</svg>
